<?xml version="1.0" encoding="UTF-8"?>
<!-- Generated by Pixelmator Pro 3.2.3 -->
<svg width="455" height="258" viewBox="0 0 455 258" xmlns="http://www.w3.org/2000/svg" xmlns:xlink="http://www.w3.org/1999/xlink">
    <path id="Export" fill="#000000" fill-rule="evenodd" stroke="none" d="M 137.359375 257.470703 C 137.205017 253.157082 136.343273 243.327768 134.125 238.521484 C 132.709002 235.453787 134.18407 200.697944 135.660156 165.9375 C 137.074307 132.620787 138.489774 99.299397 137.359375 93.871094 C 103.315269 117.285964 28.754897 158.016301 2.875 133.615234 C -6.367831 122.154137 9.192253 102.036497 18.126953 93.410156 C 37.999039 76.465 97.892747 36.19575 178.490234 10.685547 L 169.246094 17.619141 L 169.246094 20.390625 C 130.733994 36.87364 47.980814 76.495872 25.058594 103.115234 C 2.136394 129.734596 21.668976 129.918588 34.300781 126.683594 C 51.862163 123.910757 98.630983 109.492467 145.214844 74 L 149.835938 80.46875 L 137.359375 257.470703 Z M 298.353516 209.177734 C 294.22678 209.177734 291.057462 208.223886 288.845703 206.316406 C 286.633883 204.40893 285.313263 201.630192 284.882813 197.978516 L 291.294922 197.353516 C 291.680847 199.505937 292.464418 201.088246 293.644531 202.097656 C 294.824645 203.107066 296.415926 203.611328 298.419922 203.611328 C 300.542631 203.611328 302.142518 203.161754 303.21875 202.263672 C 304.294921 201.365594 304.832031 200.315657 304.832031 199.113281 C 304.832031 198.341378 304.607025 197.684398 304.154297 197.142578 C 303.701508 196.600758 302.911345 196.129306 301.783203 195.728516 C 301.011292 195.461319 299.252011 194.987521 296.505859 194.304688 C 292.972934 193.428872 290.493376 192.352774 289.068359 191.076172 C 287.064333 189.280023 286.0625 187.088758 286.0625 184.505859 C 286.0625 182.843309 286.533906 181.289114 287.476563 179.841797 C 288.419158 178.394479 289.776888 177.292205 291.550781 176.535156 C 293.324644 175.7781 295.465945 175.400391 297.974609 175.400391 C 302.07159 175.400391 305.155764 176.297609 307.226563 178.09375 C 309.297331 179.889898 310.384369 182.286624 310.488281 185.285156 L 303.898438 185.576172 C 303.616394 183.898767 303.011718 182.691818 302.083984 181.957031 C 301.15622 181.222245 299.763701 180.855469 297.908203 180.855469 C 295.993258 180.855469 294.493743 181.248406 293.410156 182.035156 C 292.712434 182.539863 292.363281 183.214425 292.363281 184.060547 C 292.363281 184.832442 292.690583 185.493729 293.34375 186.042969 C 294.175017 186.740653 296.194003 187.467561 299.400391 188.224609 C 302.606717 188.981666 304.977235 189.765206 306.513672 190.574219 C 308.050017 191.383231 309.252717 192.489793 310.121094 193.892578 C 310.989471 195.295363 311.423828 197.028452 311.423828 199.091797 C 311.423828 200.962172 310.904296 202.712835 309.865234 204.345703 C 308.826112 205.978567 307.357054 207.192159 305.457031 207.986328 C 303.556948 208.780494 301.188718 209.177734 298.353516 209.177734 Z M 387.021484 209.15625 C 383.607364 209.15625 380.630216 208.43833 378.091797 207.005859 C 375.553469 205.573389 373.647704 203.525869 372.371094 200.861328 C 371.094514 198.196784 370.455078 195.298146 370.455078 192.166016 C 370.455078 188.766681 371.168703 185.745794 372.59375 183.103516 C 374.018797 180.461238 376.103457 178.435591 378.849609 177.025391 C 380.942686 175.941766 383.546787 175.400391 386.664063 175.400391 C 390.716579 175.400391 393.883547 176.249559 396.162109 177.949219 C 398.440702 179.648886 399.905457 181.997554 400.558594 184.996094 L 394.013672 186.220703 C 393.553528 184.617517 392.687163 183.353545 391.417969 182.425781 C 390.148805 181.498017 388.564146 181.033203 386.664063 181.033203 C 383.784335 181.033203 381.49658 181.945642 379.796875 183.771484 C 378.097231 185.597334 377.246094 188.306125 377.246094 191.898438 C 377.246094 195.772785 378.108156 198.680014 379.830078 200.617188 C 381.552031 202.554361 383.806979 203.521484 386.597656 203.521484 C 387.978179 203.521484 389.362092 203.250804 390.75 202.708984 C 392.137938 202.167164 393.329682 201.510181 394.324219 200.738281 L 394.324219 196.597656 L 386.777344 196.597656 L 386.777344 191.097656 L 400.982422 191.097656 L 400.982422 204.101563 C 399.60193 205.437548 397.602414 206.61403 394.982422 207.630859 C 392.362399 208.647689 389.70831 209.15625 387.021484 209.15625 Z M 181.228516 208.599609 L 181.228516 175.957031 L 193.275391 175.957031 C 195.991864 175.957031 198.063249 176.164437 199.488281 176.580078 C 201.403181 177.144164 203.042528 178.146051 204.408203 179.585938 C 205.773863 181.025824 206.812867 182.789385 207.525391 184.875 C 208.237899 186.960623 208.59375 189.531924 208.59375 192.589844 C 208.59375 195.276651 208.259795 197.592516 207.591797 199.537109 C 206.775361 201.912191 205.611769 203.83315 204.097656 205.302734 C 202.954652 206.416049 201.409437 207.284749 199.464844 207.908203 C 198.010103 208.368377 196.065305 208.599609 193.630859 208.599609 L 181.228516 208.599609 Z M 235.160156 208.599609 L 235.160156 175.957031 L 259.363281 175.957031 L 259.363281 181.478516 L 241.75 181.478516 L 241.75 188.714844 L 258.138672 188.714844 L 258.138672 194.214844 L 241.75 194.214844 L 241.75 203.099609 L 259.986328 203.099609 L 259.986328 208.599609 L 235.160156 208.599609 Z M 337.744141 208.599609 L 337.744141 175.957031 L 344.335938 175.957031 L 344.335938 208.599609 L 337.744141 208.599609 Z M 428.103516 208.599609 L 428.103516 175.957031 L 434.517578 175.957031 L 447.876953 197.755859 L 447.876953 175.957031 L 454 175.957031 L 454 208.599609 L 447.386719 208.599609 L 434.228516 187.3125 L 434.228516 208.599609 L 428.103516 208.599609 Z M 187.820313 203.099609 L 192.740234 203.099609 C 194.580931 203.099609 195.910127 202.994922 196.726563 202.787109 C 197.795348 202.519913 198.681596 202.067993 199.386719 201.429688 C 200.091811 200.791386 200.667954 199.741454 201.113281 198.279297 C 201.558609 196.817144 201.78125 194.8243 201.78125 192.300781 C 201.78125 189.77727 201.558609 187.83911 201.113281 186.488281 C 200.667954 185.13746 200.043761 184.083221 199.242188 183.326172 C 198.440598 182.569115 197.423476 182.058212 196.191406 181.791016 C 195.271058 181.583206 193.468061 181.478516 190.78125 181.478516 L 187.820313 181.478516 L 187.820313 203.099609 Z M 178.027344 162.730469 C 181.061762 156.839093 183.502048 131.317315 185.333984 101.240234 C 175.446004 99.480396 166.595888 98.662368 160.003906 98.494141 L 155.382813 88.789063 C 166.278253 84.933785 176.840642 79.4368 186.833984 72.982422 C 187.956068 48.853549 188.719849 24.7411 189.119141 7.451172 L 198.824219 19.929688 C 199.152343 25.668552 197.976056 44.284529 196.257813 66.505859 C 225.943941 44.874128 249.46404 16.17015 259.826172 0.519531 L 257.054688 12.996094 C 244.197947 35.880508 217.629625 59.198351 195.542969 75.578125 C 195.069718 81.471164 194.570754 87.518552 194.060547 93.566406 C 225.790266 98.102789 250.217335 114.001361 259.826172 122.986328 L 263.523438 141.009766 C 247.267168 119.658818 218.180813 108.286305 193.269531 102.816406 C 191.783282 120.048733 190.272642 136.624132 189.119141 148.867188 L 178.027344 162.730469 Z M 275.955078 149.359375 C 275.901936 149.343648 275.915302 149.18491 276.001953 148.867188 C 277.111113 144.800343 274.307433 138.853742 272.767578 136.388672 C 276.477657 128.460152 281.449926 117.675389 286.503906 106.462891 C 277.143717 107.494399 270.033627 108.017303 266.759766 107.736328 C 268.608336 105.271258 272.1203 99.973006 271.380859 98.494141 C 276.4136 98.348114 283.000435 98.063629 290.466797 97.617188 C 299.339011 77.674367 307.488282 58.383006 308.351563 53.203125 C 308.735138 50.898241 309.647035 47.836483 310.865234 44.410156 L 297.722656 27.324219 L 301.419922 17.619141 C 303.043913 21.67979 307.022803 29.901147 312.933594 38.951172 C 316.380246 30.29905 320.885104 20.739939 323.601563 15.306641 L 325.451172 29.171875 C 323.453798 34.06837 320.997892 40.122153 318.353516 46.689453 C 320.003386 48.881574 321.753939 51.067385 323.601563 53.203125 C 329.846979 60.42466 342.121533 75.263 354.560547 90.427734 C 359.277186 89.511125 363.647923 88.504561 367.505859 87.402344 C 393.385808 80.008079 412.489081 79.082779 418.804688 79.544922 L 418.804688 83.242188 C 411.718208 83.70433 395.512626 86.014837 387.378906 91.560547 C 379.553932 92.87625 369.806233 94.473528 359.25 96.146484 C 368.771048 107.776737 377.954504 119.05825 384.142578 126.683594 L 384.142578 140.085938 C 375.147439 128.842029 362.458026 112.85556 350.476563 97.525391 C 331.836505 100.428555 311.718673 103.388201 295.660156 105.382813 C 295.345917 106.345931 295.105438 107.139237 294.949219 107.736328 C 292.349667 117.662265 276.752215 149.595279 275.955078 149.359375 Z M 298.601563 97.085938 C 313.65535 96.025773 330.988815 94.358839 346.105469 91.921875 C 330.950912 72.449147 317.874022 55.175244 316.337891 51.708984 C 309.932593 67.676543 302.852352 85.597271 298.601563 97.085938 Z M 185.832031 92.667969 C 186.026123 89.198386 186.211213 85.689904 186.388672 82.162109 C 180.366055 86.36048 174.959388 89.86524 170.632813 92.486328 C 175.831914 92.217454 180.906535 92.297334 185.832031 92.667969 Z"/>
</svg>
