<?xml version="1.0" encoding="UTF-8"?>
<!-- Generated by Pixelmator Pro 3.2.3 -->
<svg width="120" height="120" viewBox="0 0 120 120" xmlns="http://www.w3.org/2000/svg" xmlns:xlink="http://www.w3.org/1999/xlink">
    <path id="Envelope" fill="#000000" fill-rule="evenodd" stroke="none" d="M 64.750237 63.975285 C 63.49065 65.235596 61.781834 65.943703 60.000011 65.943703 C 58.218193 65.943703 56.509377 65.235596 55.249813 63.975285 L 11.405994 20.132301 C 13.479438 18.7388 15.921817 17.996284 18.420002 17.999962 L 101.580025 17.999962 C 104.078232 17.996132 106.520668 18.738655 108.594009 20.132301 Z M 7.014066 94.755394 C 6.225771 93.080238 5.817998 91.25135 5.819998 89.399979 L 5.819998 30.599968 C 5.817998 28.748604 6.225771 26.919716 7.014066 25.24456 L 41.769485 59.999969 Z M 46.522198 64.751862 L 51.091801 69.32103 C 53.454224 71.68399 56.658672 73.011543 60.000011 73.011543 C 63.341351 73.011543 66.545799 71.68399 68.908203 69.32103 L 73.477806 64.751862 L 108.594009 99.86763 C 106.520668 101.261292 104.078232 102.003807 101.580025 101.999985 L 18.420002 101.999985 C 15.921817 102.003647 13.479438 101.261139 11.405994 99.86763 Z M 112.987244 25.24456 C 113.774902 26.919891 114.182236 28.748703 114.180038 30.599968 L 114.180038 89.399979 C 114.182236 91.251251 113.774902 93.080063 112.987244 94.755394 L 78.232231 59.999969 Z"/>
</svg>
