<?xml version="1.0" encoding="UTF-8"?>
<!-- Generated by Pixelmator Pro 3.2.3 -->
<svg width="120" height="120" viewBox="0 0 120 120" xmlns="http://www.w3.org/2000/svg" xmlns:xlink="http://www.w3.org/1999/xlink">
    <path id="Phone" fill="#000000" fill-rule="evenodd" stroke="none" d="M 99.949577 112.045677 C 96.608795 113.356773 93.048965 114.019859 89.460213 113.99955 C 83.868111 113.99955 77.992805 112.699203 71.834267 110.098503 C 65.287941 107.276535 59.08395 103.718979 53.341858 99.494453 C 40.783863 90.298653 29.712574 79.228798 20.515165 66.671951 C 16.290028 60.930214 12.732037 54.726326 9.909887 48.179977 C 7.31001 42.021988 6.010071 36.148621 6.010071 30.559883 C 5.98948 26.971489 6.652589 23.412041 7.963965 20.071793 C 9.340435 16.703232 11.408015 13.660736 14.033218 11.140793 C 17.470907 7.703079 21.418854 6.015823 25.41243 6.015823 C 26.954882 6.009392 28.479733 6.343544 29.878147 6.994431 C 31.336676 7.691185 32.586201 8.759415 33.501286 10.09185 L 46.027782 27.709839 C 47.961586 30.390358 48.928486 32.754158 48.928486 34.801239 C 48.918526 36.150558 48.534595 37.470665 47.819267 38.614838 C 46.944679 40.018768 45.924721 41.326744 44.776287 42.517159 L 40.665936 46.70285 C 40.084782 47.276619 39.766666 48.065086 39.786926 48.881485 C 39.781536 49.306641 39.850948 49.729401 39.99202 50.130493 C 40.125977 50.510284 40.268291 50.869278 40.418968 51.207474 C 41.360748 53.014854 43.036423 55.326332 45.445988 58.141918 C 47.856926 60.957218 50.594383 63.701344 53.453194 66.56102 C 56.312054 69.420677 59.057842 72.157288 61.874805 74.567001 C 64.691818 76.976685 67.002274 78.653061 68.810524 79.595276 C 69.149536 79.743858 69.509552 79.888252 69.886223 80.022629 C 70.288445 80.162704 70.711922 80.231842 71.137741 80.226883 C 71.953629 80.247375 72.741508 79.929184 73.314331 79.3479 L 77.504219 75.241302 C 78.693039 74.091103 80.000763 73.07048 81.405258 72.196632 C 82.549629 71.482147 83.869362 71.098251 85.218414 71.087418 C 87.265244 71.087418 89.630173 72.054169 92.313194 73.987686 L 109.930756 86.513367 C 111.263519 87.427917 112.331863 88.677414 113.028183 90.136093 C 113.679489 91.534225 114.013954 93.058975 114.007622 94.601379 C 114.007622 98.594543 112.32077 102.541649 108.884338 105.979362 C 106.362297 108.603134 103.318726 110.669594 99.949577 112.045677 Z"/>
</svg>
